<?xml version="1.0" encoding="UTF-8" standalone="no"?>
<svg
   xmlns:dc="http://purl.org/dc/elements/1.1/"
   xmlns:cc="http://creativecommons.org/ns#"
   xmlns:rdf="http://www.w3.org/1999/02/22-rdf-syntax-ns#"
   xmlns:svg="http://www.w3.org/2000/svg"
   xmlns="http://www.w3.org/2000/svg"
   viewBox="0 0 468.75 468.75"
   height="468.75"
   width="468.75"
   xml:space="preserve"
   version="1.1"
   id="svg8284"><metadata
     id="metadata8290"><rdf:RDF><cc:Work
         rdf:about=""><dc:format>image/svg+xml</dc:format><dc:type
           rdf:resource="http://purl.org/dc/dcmitype/StillImage" /><dc:title></dc:title></cc:Work></rdf:RDF></metadata><defs
     id="defs8288"><clipPath
       id="clipPath8298"
       clipPathUnits="userSpaceOnUse"><path
         style="clip-rule:evenodd"
         id="path8300"
         d="m 0,0 375,0 0,375.75 -375,0 L 0,0 Z" /></clipPath><clipPath
       id="clipPath8310"
       clipPathUnits="userSpaceOnUse"><path
         style="clip-rule:evenodd"
         id="path8312"
         d="M 375,375 375,0 0,0 l 0,375 375,0 z" /></clipPath><clipPath
       id="clipPath8324"
       clipPathUnits="userSpaceOnUse"><path
         style="clip-rule:evenodd"
         id="path8326"
         d="M 375,375 375,0 0,0 l 0,375 375,0 z" /></clipPath><clipPath
       id="clipPath8398"
       clipPathUnits="userSpaceOnUse"><path
         style="clip-rule:evenodd"
         id="path8400"
         d="M 181.89194,26.130249 26.505234,181.51695 182.95261,337.96432 338.33929,182.57762 181.89194,26.130249 Z" /></clipPath></defs><g
     transform="matrix(1.25,0,0,1.25,-1.3969839e-5,0)"
     id="g8292"><g
       style="fill:#000000"
       id="g8394"><g
         style="fill:#000000"
         clip-path="url(#clipPath8398)"
         id="g8396"><g
           style="fill:#000000"
           transform="matrix(0.6967746,-0.6967746,0.69718081,0.69718081,26.508219,181.51396)"
           id="g8402"><path
             id="path8404"
             style="fill:#000000;fill-opacity:1;fill-rule:nonzero;stroke:none"
             d="m 188,224.39999 -188,0 0,-187.999996 188,0 0,187.999996 z m -185,-3 182,0 0,-181.999996 -182,0 0,181.999996 z" /><path
             id="path8406"
             style="fill:#000000;fill-opacity:1;fill-rule:nonzero;stroke:none"
             d="m 205,205.39999 -188,0 0,-187.999996 188,0 0,187.999996 z m -185,-3 182,0 0,-181.999996 -182,0 0,181.999996 z" /><path
             id="path8408"
             style="fill:#000000;fill-opacity:1;fill-rule:nonzero;stroke:none"
             d="M 223,188 35,188 35,0 223,0 223,188 Z M 38,185 220,185 220,3 38,3 38,185 Z" /></g></g></g><g
       id="flowRoot8410"
       style="font-style:normal;font-weight:normal;font-size:27.5px;line-height:125%;font-family:sans-serif;letter-spacing:0px;word-spacing:0px;fill:#000000;fill-opacity:1;stroke:none;stroke-width:1px;stroke-linecap:butt;stroke-linejoin:miter;stroke-opacity:1"
       transform="matrix(0.8,0,0,0.8,126.32416,-124.3097)"><path
         id="path8442"
         style="font-weight:bold;fill:#000000"
         d="m 18.957275,364.14199 -1.423339,-4.67286 -7.156983,0 -1.4233397,4.67286 -4.4848633,0 6.928711,-19.71192 5.089111,0 6.955567,19.71192 -4.484864,0 z m -2.416992,-8.16407 q -1.973877,-6.35132 -2.229004,-7.18383 -0.241699,-0.83252 -0.349121,-1.31592 -0.443115,1.71875 -2.537842,8.49975 l 5.115967,0 z" /><path
         id="path8444"
         style="font-weight:bold;fill:#000000"
         d="m 42.187256,354.13832 q 0,4.84742 -2.766113,7.42554 -2.752686,2.57813 -7.962647,2.57813 l -5.559082,0 0,-19.63135 6.16333,0 q 4.807129,0 7.46582,2.53784 2.658692,2.53784 2.658692,7.08984 z m -4.323731,0.10743 q 0,-6.32447 -5.585937,-6.32447 l -2.215576,0 0,12.78321 1.785888,0 q 6.015625,0 6.015625,-6.45874 z" /><path
         id="path8446"
         style="font-weight:bold;fill:#000000"
         d="m 57.347168,344.51064 4.202881,0 -6.673584,19.63135 -4.538574,0 -6.660157,-19.63135 4.202881,0 3.692627,11.68213 q 0.308838,1.03393 0.631104,2.41699 0.335693,1.36963 0.416259,1.90674 0.147706,-1.23535 1.007081,-4.32373 l 3.719482,-11.68213 z" /><path
         id="path8448"
         style="font-weight:bold;fill:#000000"
         d="m 75.514893,364.14199 -1.42334,-4.67286 -7.156983,0 -1.42334,4.67286 -4.484863,0 6.928711,-19.71192 5.089111,0 6.955567,19.71192 -4.484863,0 z M 73.0979,355.97792 q -1.973877,-6.35132 -2.229004,-7.18383 -0.241699,-0.83252 -0.349121,-1.31592 -0.443115,1.71875 -2.537841,8.49975 l 5.115966,0 z" /><path
         id="path8450"
         style="font-weight:bold;fill:#000000"
         d="m 99.872803,364.14199 -5.290528,0 -8.540039,-14.85108 -0.120849,0 q 0.255127,3.93433 0.255127,5.61279 l 0,9.23829 -3.719483,0 0,-19.63135 5.250244,0 8.526612,14.70337 0.09399,0 q -0.201416,-3.82691 -0.201416,-5.41138 l 0,-9.29199 3.746338,0 0,19.63135 z" /><path
         id="path8452"
         style="font-weight:bold;fill:#000000"
         d="m 113.1394,347.69301 q -2.34985,0 -3.63891,1.77246 -1.28906,1.75904 -1.28906,4.91455 0,6.56616 4.92797,6.56616 2.06788,0 5.00855,-1.03393 l 0,3.49121 q -2.41699,1.00708 -5.39795,1.00708 -4.28345,0 -6.55273,-2.59155 -2.26929,-2.60498 -2.26929,-7.46582 0,-3.06153 1.1145,-5.35767 1.1145,-2.30957 3.1958,-3.53149 2.09473,-1.23535 4.90112,-1.23535 2.86011,0 5.74707,1.38305 l -1.34277,3.38379 q -1.10107,-0.52368 -2.21557,-0.91308 -1.11451,-0.38941 -2.18873,-0.38941 z" /><path
         id="path8454"
         style="font-weight:bold;fill:#000000"
         d="m 133.6167,364.14199 -11.30615,0 0,-19.63135 11.30615,0 0,3.41064 -7.14356,0 0,4.31031 6.64673,0 0,3.41064 -6.64673,0 0,5.06226 7.14356,0 0,3.4375 z" /><path
         id="path8456"
         style="font-weight:bold;fill:#000000"
         d="m 14.512695,398.51699 -4.162597,0 0,-16.167 -5.3308109,0 0,-3.46435 14.8242189,0 0,3.46435 -5.330811,0 0,16.167 z" /><path
         id="path8458"
         style="font-weight:bold;fill:#000000"
         d="m 34.197754,398.51699 -11.306152,0 0,-19.63135 11.306152,0 0,3.41064 -7.143555,0 0,4.31031 6.646729,0 0,3.41064 -6.646729,0 0,5.06226 7.143555,0 0,3.4375 z" /><path
         id="path8460"
         style="font-weight:bold;fill:#000000"
         d="m 46.645264,382.06801 q -2.349854,0 -3.638916,1.77246 -1.289063,1.75904 -1.289063,4.91455 0,6.56616 4.927979,6.56616 2.067871,0 5.008545,-1.03393 l 0,3.49121 q -2.416993,1.00708 -5.39795,1.00708 -4.283447,0 -6.552734,-2.59155 -2.269287,-2.60498 -2.269287,-7.46582 0,-3.06153 1.114502,-5.35767 1.114502,-2.30957 3.195801,-3.53149 2.094726,-1.23535 4.901123,-1.23535 2.860107,0 5.74707,1.38305 l -1.342773,3.38379 q -1.101075,-0.52368 -2.215577,-0.91308 -1.114502,-0.38941 -2.18872,-0.38941 z" /><path
         id="path8462"
         style="font-weight:bold;fill:#000000"
         d="m 71.902832,398.51699 -4.14917,0 0,-8.4729 -7.774658,0 0,8.4729 -4.162598,0 0,-19.63135 4.162598,0 0,7.69409 7.774658,0 0,-7.69409 4.14917,0 0,19.63135 z" /><path
         id="path8464"
         style="font-weight:bold;fill:#000000"
         d="m 15.251221,432.89199 -4.726563,-15.40162 -0.120849,0 q 0.255127,4.69971 0.255127,6.27076 l 0,9.13086 -3.7194829,0 0,-19.63135 5.6665039,0 4.645996,15.01221 0.08057,0 4.927978,-15.01221 5.666504,0 0,19.63135 -3.880615,0 0,-9.292 q 0,-0.65796 0.01343,-1.51733 0.02686,-0.85938 0.187989,-4.56543 l -0.12085,0 -5.062256,15.37476 -3.813476,0 z" /><path
         id="path8466"
         style="font-weight:bold;fill:#000000"
         d="m 44.187988,432.89199 -11.306152,0 0,-19.63135 11.306152,0 0,3.41064 -7.143554,0 0,4.31031 6.646728,0 0,3.41064 -6.646728,0 0,5.06226 7.143554,0 0,3.4375 z" /><path
         id="path8468"
         style="font-weight:bold;fill:#000000"
         d="m 64.584717,422.88832 q 0,4.84742 -2.766113,7.42554 -2.752686,2.57813 -7.962647,2.57813 l -5.559082,0 0,-19.63135 6.16333,0 q 4.807129,0 7.46582,2.53784 2.658692,2.53784 2.658692,7.08984 z m -4.323731,0.10743 q 0,-6.32447 -5.585937,-6.32447 l -2.215576,0 0,12.78321 1.785888,0 q 6.015625,0 6.015625,-6.45874 z" /><path
         id="path8470"
         style="font-weight:bold;fill:#000000"
         d="m 75.998291,432.89199 -8.929443,0 0,-2.36329 2.390136,-1.10107 0,-12.70264 -2.390136,-1.10107 0,-2.36328 8.929443,0 0,2.36328 -2.390137,1.10107 0,12.70264 2.390137,1.10107 0,2.36329 z" /><path
         id="path8472"
         style="font-weight:bold;fill:#000000"
         d="m 91.359619,432.89199 -1.42334,-4.67286 -7.156982,0 -1.42334,4.67286 -4.484863,0 6.928711,-19.71192 5.089111,0 6.955566,19.71192 -4.484863,0 z m -2.416992,-8.16407 q -1.973877,-6.35132 -2.229004,-7.18383 -0.241699,-0.83252 -0.349121,-1.31592 -0.443115,1.71875 -2.537842,8.49975 l 5.115967,0 z" /></g></g></svg>